<?xml version="1.0" standalone="no"?>
<!DOCTYPE svg PUBLIC "-//W3C//DTD SVG 20010904//EN"
 "http://www.w3.org/TR/2001/REC-SVG-20010904/DTD/svg10.dtd">
<svg version="1.0" xmlns="http://www.w3.org/2000/svg"
 width="256.000000pt" height="256.000000pt" viewBox="0 0 256.000000 256.000000"
 preserveAspectRatio="xMidYMid meet">
<metadata>
Created by potrace 1.11, written by Peter Selinger 2001-2013
</metadata>
<g transform="translate(0.000000,256.000000) scale(0.100000,-0.100000)"
fill="#000000" stroke="none">
<path d="M1165 2240 c-3 -5 -12 -7 -20 -3 -9 3 -15 -1 -15 -10 0 -9 -7 -23
-16 -31 -8 -9 -12 -16 -8 -16 4 0 -3 -11 -16 -25 -12 -13 -27 -22 -31 -19 -5
3 -9 1 -9 -4 0 -13 -48 -33 -55 -22 -3 5 -1 11 5 15 6 4 8 10 5 15 -13 20 78
90 108 82 4 -1 7 3 7 8 0 14 -15 13 -53 -4 -49 -21 -78 -58 -82 -106 -2 -24
-7 -46 -12 -49 -14 -10 -44 -61 -36 -61 5 0 2 -4 -5 -9 -7 -4 -15 -14 -16 -22
-2 -8 -7 -23 -12 -34 -10 -24 -9 -127 1 -170 4 -16 8 -39 9 -50 0 -11 3 -22 6
-25 3 -3 12 -33 21 -67 12 -49 13 -63 3 -63 -7 0 -15 9 -19 19 -4 12 -12 18
-21 14 -10 -3 -11 -9 -5 -17 6 -7 6 -18 1 -26 -5 -8 -7 -17 -4 -22 2 -4 5 -23
6 -42 1 -24 5 -33 15 -29 14 6 17 16 6 27 -8 8 -12 66 -4 66 11 0 51 -70 51
-88 0 -10 -14 -28 -30 -41 -17 -12 -28 -26 -25 -32 4 -5 2 -9 -4 -9 -5 0 -8
-8 -6 -17 2 -10 4 -23 4 -29 2 -20 35 -51 66 -61 26 -8 30 -14 31 -49 0 -22 3
-45 7 -50 3 -6 4 -14 1 -17 -3 -3 -6 -40 -7 -81 0 -55 -4 -76 -13 -76 -7 0
-17 6 -21 13 -15 25 -65 51 -94 49 -19 -2 -39 7 -61 26 -18 16 -42 35 -54 43
-37 25 -124 102 -200 177 -71 70 -92 106 -80 137 3 8 1 15 -5 15 -6 0 -7 5 -4
10 10 16 -14 78 -38 100 -11 11 -17 20 -11 20 5 0 5 3 -1 8 -5 4 -17 21 -27
37 -9 17 -30 38 -48 49 -28 17 -36 17 -71 6 -21 -7 -39 -18 -39 -23 0 -5 -10
-7 -22 -4 -32 9 -82 -16 -109 -54 -23 -33 -33 -42 -45 -39 -11 3 -44 -44 -53
-76 -18 -67 18 -145 114 -248 30 -32 55 -62 55 -67 0 -5 12 -21 27 -37 16 -16
35 -39 43 -52 8 -12 25 -33 37 -46 13 -13 23 -25 23 -28 0 -13 295 -316 309
-316 3 0 7 -14 7 -32 1 -29 25 -58 79 -96 23 -17 107 -52 123 -52 46 -1 46
-17 0 -82 -25 -34 -56 -74 -68 -88 -73 -83 -167 -259 -165 -310 0 -8 -3 -18
-8 -21 -38 -26 26 -29 683 -29 l679 0 -4 58 c-1 31 -6 71 -10 87 -14 59 -57
165 -68 165 -5 0 -8 3 -4 6 14 15 -107 167 -161 204 -12 8 -22 19 -22 24 0 5
3 7 6 3 3 -3 25 1 47 10 23 8 49 16 58 18 61 13 197 118 200 155 1 8 2 20 3
26 0 6 42 55 91 108 130 141 147 161 175 196 14 18 30 37 35 44 6 6 26 31 45
56 44 58 54 70 85 100 14 14 45 44 69 67 49 47 72 111 63 169 -4 26 -20 49
-52 80 -25 24 -45 48 -45 54 0 15 -60 49 -77 43 -7 -3 -23 3 -33 12 -11 10
-38 20 -59 22 -35 3 -44 -1 -73 -30 -89 -92 -110 -126 -113 -185 -2 -26 -3
-51 -4 -55 -1 -9 -51 -58 -127 -127 -48 -44 -219 -180 -256 -204 -14 -9 -32
-16 -40 -15 -25 5 -55 -11 -81 -45 -20 -25 -35 -33 -62 -34 -33 -1 -34 0 -31
28 4 34 22 60 43 60 8 0 11 4 8 10 -3 6 -2 10 3 10 12 0 62 47 62 58 0 13 25
22 49 17 21 -4 73 40 69 59 -4 15 33 96 43 96 11 0 -1 64 -14 73 -7 4 -26 6
-44 3 -24 -3 -40 2 -66 22 -29 22 -36 35 -39 72 -4 32 1 54 14 77 26 44 25
136 -2 153 -6 4 -9 23 -6 44 3 28 0 42 -14 56 -10 10 -24 38 -30 62 -6 24 -14
50 -17 58 -3 8 -7 20 -7 25 -1 6 -14 29 -30 52 -31 46 -79 87 -121 103 -15 6
-29 18 -32 28 -3 9 -19 28 -35 41 -37 30 -128 41 -155 20 -11 -10 -14 -10 -9
-1 4 6 5 12 2 12 -3 0 -7 -4 -11 -10z m169 -40 l29 -29 -36 2 c-20 1 -37 5
-37 9 0 3 -9 4 -20 1 -24 -6 -77 36 -60 47 25 16 95 -1 124 -30z m-126 -3 c20
-16 14 -26 -13 -21 -14 2 -25 1 -25 -3 0 -5 -11 -9 -25 -9 -31 -2 -32 12 -3
36 22 17 40 17 66 -3z"/>
</g>
</svg>
